<?xml version="1.0" encoding="UTF-8" standalone="no"?>
<svg width="71px" height="111px" viewBox="0 0 71 111" version="1.1" xmlns="http://www.w3.org/2000/svg" xmlns:xlink="http://www.w3.org/1999/xlink" xmlns:sketch="http://www.bohemiancoding.com/sketch/ns">
    <!-- Generator: Sketch 3.4.4 (17249) - http://www.bohemiancoding.com/sketch -->
    <title>Rectangle 1 + K Copy</title>
    <desc>Created with Sketch.</desc>
    <defs></defs>
    <g id="Page-1" stroke="none" stroke-width="1" fill="none" fill-rule="evenodd" sketch:type="MSPage">
        <g id="Rectangle-1-+-K-Copy" sketch:type="MSLayerGroup" transform="translate(-19.000000, -4.000000)">
            <rect id="Rectangle-1" sketch:type="MSShapeGroup" x="0" y="0" width="120" height="120"></rect>
            <path d="M39.25,4 C40.5625066,4 42.0624916,4.56249437 43.75,5.6875 C43.8437505,4.93749625 44.2187467,4.5625 44.875,4.5625 C46.3750075,5.12500281 47.125,6.43748969 47.125,8.5 L47.125,10.1875 C47.125,11.593757 46.1875094,16.093712 44.3125,23.6875 L44.3125,24.25 L44.875,24.25 C46.7500094,18.24997 49.187485,14.3125094 52.1875,12.4375 L53.3125,12.4375 C54.0625038,12.4375 54.4375,12.9999944 54.4375,14.125 C59.031273,9.24997563 63.3437298,6.8125 67.375,6.8125 C67.375,7.65625422 68.4999887,8.96874109 70.75,10.75 L70.75,11.3125 C72.2500075,9.43749063 73.7499925,8.5 75.25,8.5 L76.9375,8.5 C78.0625056,10.4687598 78.625,11.7812467 78.625,12.4375 L79.75,11.875 L80.3125,11.875 C81.0625038,11.875 81.4375,12.4374944 81.4375,13.5625 C81.4375,16.2812636 77.5000394,21.9062073 69.625,30.4375 C63.7187205,41.031303 59.7812598,49.2812205 57.8125,55.1875 C50.6874644,62.0312842 47.125,66.9062355 47.125,69.8125 L48.25,71.5 L48.25,72.0625 L47.6875,72.0625 C46.5624944,71.6874981 46,70.5625094 46,68.6875 L45.4375,68.6875 L45.4375,70.375 C45.4375,73.0937636 52.3749306,78.7187073 66.25,87.25 C77.0313039,92.3125253 84.718727,97.5624728 89.3125,103 C88.9374981,103 88.75,103.187498 88.75,103.5625 C81.7187148,98.3124737 74.0312917,93.4375225 65.6875,88.9375 L65.125,88.9375 C68.5937673,91.937515 73.6562167,95.6874775 80.3125,100.1875 L79.1875,100.1875 C78.7187477,99.8124981 77.0312645,98.8750075 74.125,97.375 L74.125,100.1875 L73.5625,100.1875 L73.5625,100.75 C74.6875056,100.75 75.25,101.124996 75.25,101.875 L76.375,101.3125 C77.1250038,101.687502 77.6874981,101.875 78.0625,101.875 L77.5,104.6875 L76.375,104.6875 L74.6875,103.5625 L74.6875,104.125 C76.5625094,105.062505 77.5,105.812497 77.5,106.375 L76.375,106.9375 L72.4375,103.5625 L71.3125,104.125 L69.0625,103 C68.4062467,103.375002 67.6562542,103.5625 66.8125,103.5625 C57.4374531,98.8749766 48.8125394,93.4375309 40.9375,87.25 L40.9375,88.375 C49.1875412,94.8437823 55.9374737,98.9687411 61.1875,100.75 L61.1875,101.875 C59.0312392,101.875 52.4688048,98.87503 41.5,92.875 C42.6250056,102.250047 43.1875,109.187477 43.1875,113.6875 L42.0625,114.25 C41.3124962,112.468741 40.5625038,104.968816 39.8125,91.75 L39.25,91.75 C38.8749981,96.156272 38.6875,99.3437402 38.6875,101.3125 L38.6875,104.6875 L37.5625,104.6875 L37.5625,103 L36.4375,103 L36.4375,104.125 L35.3125,104.125 L35.3125,103 L34.75,103 L34.75,106.375 L35.875,106.375 L35.875,107.5 C35.3124972,107.5 34.5625047,107.874996 33.625,108.625 C33.2499981,108.625 33.0625,106.562521 33.0625,102.4375 L32.5,102.4375 L32.5,109.1875 L31.375,109.1875 L31.375,104.125 C30.6249963,104.125 30.25,103.187509 30.25,101.3125 L29.6875,101.3125 L29.6875,103 L28.5625,103 C28.5625,100.656238 27.8125075,95.0312945 26.3125,86.125 C26.3125,85.9374991 26.4999981,83.5000234 26.875,78.8125 C26.1249963,75.9999859 25.75,74.1250047 25.75,73.1875 L25.1875,73.1875 L25.1875,76 C25.1875,80.0312702 25.7499944,86.2187083 26.875,94.5625 L25.75,94.5625 C21.2499775,78.4374194 19,55.1876519 19,24.8125 L19,21.4375 C19,18.5312355 19.9374906,16.6562542 21.8125,15.8125 L23.5,16.9375 C23.5,13.8437345 25.9374756,10.4687683 30.8125,6.8125 C32.0312561,7.56250375 33.1562448,7.9375 34.1875,7.9375 L36.4375,7.9375 C36.5312505,5.31248687 37.4687411,4 39.25,4 L39.25,4 Z M39.8125,6.25 L39.8125,7.375 L40.375,7.375 L40.375,6.25 L39.8125,6.25 Z M40.375,10.1875 C40.375,10.5625019 40.1875019,11.1249962 39.8125,11.875 L40.9375,11.875 L40.9375,10.1875 L40.375,10.1875 Z M73,15.8125 L72.4375,16.9375 L73,16.9375 L73.5625,15.8125 L73,15.8125 Z M38.6875,16.9375 L38.6875,18.0625 L39.25,18.0625 L39.25,16.9375 L38.6875,16.9375 Z M42.625,16.9375 L42.625,18.0625 L43.1875,18.0625 L43.1875,16.9375 L42.625,16.9375 Z M49.375,73.1875 C49.9375028,73.1875 50.6874953,73.9374925 51.625,75.4375 L51.0625,75.4375 C50.4999972,75.4375 49.9375028,74.8750056 49.375,73.75 L49.375,73.1875 Z M48.25,76.5625 L48.25,77.125 C50.1250094,78.6250075 51.2499981,79.375 51.625,79.375 L51.625,78.8125 C51.2499981,78.8125 50.1250094,78.0625075 48.25,76.5625 L48.25,76.5625 Z M53.875,77.6875 L55,77.6875 L55,78.25 L53.875,78.25 L53.875,77.6875 Z M29.125,87.8125 L29.125,89.5 C29.5000019,93.3437692 29.6875,95.5937467 29.6875,96.25 C29.3124981,97.7500075 29.125,99.0624944 29.125,100.1875 C29.5000019,100.1875 30.0624963,100.374998 30.8125,100.75 L30.8125,99.625 C30.8125,97.2812383 30.4375037,93.3437777 29.6875,87.8125 L29.125,87.8125 Z M34.75,88.9375 L34.75,95.125 L35.3125,95.125 L35.3125,88.9375 L34.75,88.9375 Z M59.5,90.625 L59.5,91.1875 L60.625,91.75 L61.1875,91.75 L61.1875,91.1875 C60.8124981,91.1875 60.2500038,91.0000019 59.5,90.625 L59.5,90.625 Z M62.875,92.875 L62.875,93.4375 L64,93.4375 L64,92.875 L62.875,92.875 Z M54.4375,94 L54.4375,94.5625 L66.25,100.75 L66.8125,100.75 L66.8125,100.1875 L55,94 L54.4375,94 Z M80.875,100.75 L82,100.75 L82,101.3125 L80.875,101.3125 L80.875,100.75 Z M68.5,103.5625 L69.625,103.5625 L69.625,104.125 L68.5,104.125 L68.5,103.5625 Z M79.75,104.125 L80.3125,104.125 C81.0625038,104.21875 81.4375,104.593747 81.4375,105.25 L80.875,105.25 C80.1249962,105.25 79.75,104.875004 79.75,104.125 L79.75,104.125 Z M38.125,106.375 L39.25,106.375 L39.25,108.625 L38.125,108.625 L38.125,106.375 Z" id="K-Copy" fill="#FF3B30" sketch:type="MSShapeGroup"></path>
        </g>
    </g>
</svg>